<?xml version="1.0" encoding="UTF-8"?>
<svg id="icons" xmlns="http://www.w3.org/2000/svg" viewBox="0 0 216 216">
  <defs>
    <style>
      .cls-1 {
        fill: #003764;
      }
    </style>
  </defs>
  <path class="cls-1" d="m180,0H36C16.2,0,0,16.2,0,36v144c0,19.8,16.2,36,36,36h144c19.8,0,36-16.2,36-36V36C216,16.2,199.8,0,180,0Zm15.65,144.35c-.43,9.39-1.92,15.79-4.1,21.41-2.24,5.81-5.25,10.71-10.17,15.61-4.88,4.92-9.82,7.93-15.61,10.17-5.6,2.2-12.02,3.68-21.41,4.1-9.39.44-12.39.54-36.35.54s-26.96-.09-36.35-.54c-9.39-.43-15.81-1.9-21.41-4.1-5.79-2.24-10.72-5.25-15.61-10.17-4.92-4.9-7.93-9.8-10.17-15.61-2.2-5.62-3.7-12.02-4.1-21.41-.43-9.39-.54-12.41-.54-36.35s.11-26.96.54-36.35c.41-9.39,1.9-15.81,4.1-21.39,2.24-5.81,5.25-10.74,10.17-15.64,4.88-4.9,9.82-7.91,15.61-10.17,5.6-2.16,12.02-3.66,21.41-4.1,9.39-.41,12.39-.52,36.35-.52s26.96.11,36.35.52c9.39.44,15.81,1.94,21.41,4.1,5.79,2.26,10.72,5.27,15.61,10.17,4.92,4.9,7.93,9.84,10.17,15.64,2.18,5.58,3.68,12,4.1,21.39.43,9.39.54,12.41.54,36.35s-.11,26.96-.54,36.35Z"/>
  <path class="cls-1" d="m176.75,56c-1.59-4.12-3.51-7.06-6.6-10.15-3.09-3.07-6.03-4.99-10.15-6.6-3.11-1.2-7.77-2.63-16.36-3.03-9.28-.43-12.07-.52-35.63-.52s-26.35.09-35.63.52c-8.6.41-13.26,1.83-16.36,3.03-4.12,1.61-7.06,3.53-10.15,6.6-3.09,3.09-5.01,6.03-6.6,10.15-1.2,3.11-2.64,7.77-3.03,16.36-.43,9.3-.5,12.09-.5,35.63s.07,26.33.5,35.63c.39,8.6,1.83,13.26,3.03,16.38,1.59,4.1,3.51,7.04,6.6,10.13s6.03,4.99,10.15,6.6c3.11,1.2,7.77,2.64,16.36,3.03,9.28.43,12.07.5,35.63.5s26.35-.07,35.63-.5c8.6-.39,13.26-1.83,16.36-3.03,4.12-1.61,7.06-3.51,10.15-6.6,3.09-3.09,5.01-6.03,6.6-10.13,1.2-3.12,2.64-7.78,3.03-16.38.43-9.3.52-12.07.52-35.63s-.09-26.33-.52-35.63c-.39-8.6-1.83-13.26-3.03-16.36Zm-68.75,97.27c-25,0-45.28-20.27-45.28-45.28s20.28-45.26,45.28-45.26,45.28,20.27,45.28,45.26-20.27,45.28-45.28,45.28Zm47.08-81.77c-5.86,0-10.6-4.73-10.6-10.58s4.73-10.58,10.6-10.58,10.58,4.73,10.58,10.58-4.73,10.58-10.58,10.58Z"/>
  <path class="cls-1" d="m108,78.61c-16.23,0-29.4,13.15-29.4,29.38s13.17,29.4,29.4,29.4,29.4-13.15,29.4-29.4-13.17-29.38-29.4-29.38Z"/>
</svg>