<?xml version="1.0" encoding="UTF-8"?>
<svg id="icons" xmlns="http://www.w3.org/2000/svg" viewBox="0 0 216 216">
  <defs>
    <style>
      .cls-1 {
        fill: #fff;
      }

      .cls-2 {
        fill: #55a8d8;
      }
    </style>
  </defs>
  <path class="cls-2" d="m35.44,216c-19.54,0-35.44-15.9-35.44-35.44V35.44C0,15.9,15.9,0,35.44,0h145.13c19.54,0,35.43,15.9,35.43,35.44v145.12c0,19.54-15.89,35.44-35.43,35.44H35.44Z"/>
  <path class="cls-1" d="m45.81,56.35s21.57,30.2,61.33,30.82c0,0-3.39-26.2,19.41-34.21,0,0,19.41-8.02,32.36,7.08,0,0,15.1-2.47,18.49-7.09,0,0-.93,9.28-11.41,16.04,0,0,9.56-.01,16.33-3.71,0,0-9.53,11.92-13.66,13.78l-.2.09c-4.01,1.54,4.31,28.36-20.65,60.1,0,0-18.92,25.58-54.24,30.51-14.37,2-35.44,3.69-56.71-12.33,0,0,21.57,2.77,43.14-13.25,0,0-22.19-1.85-27.43-20.34,0,0,10.17,0,12.32-.31,0,0-23.73-8.01-23.42-30.67,0,0,8.01,3.55,12.48,3.08,0,0-20.03-14.95-8.17-39.6Z"/>
</svg>