<?xml version="1.0" encoding="UTF-8"?>
<svg id="icons" xmlns="http://www.w3.org/2000/svg" viewBox="0 0 216 216">
  <defs>
    <style>
      .cls-1 {
        fill: #fff;
      }

      .cls-2 {
        fill: #2968b2;
      }
    </style>
  </defs>
  <path class="cls-2" d="m180.56,0H35.44C15.9,0,0,15.9,0,35.44v145.12c0,19.54,15.9,35.44,35.44,35.44h145.12c19.55,0,35.44-15.9,35.44-35.44V35.44c0-19.54-15.89-35.44-35.44-35.44Z"/>
  <g>
    <path class="cls-1" d="m31.71,81.77h32.42v104.29H31.71v-104.29Zm16.21-51.84c10.36,0,18.78,8.43,18.78,18.81s-8.42,18.78-18.78,18.78-18.79-8.41-18.79-18.78,8.4-18.81,18.79-18.81"/>
    <path class="cls-1" d="m84.46,81.77h31.1v14.27h.44c4.32-8.21,14.9-16.84,30.67-16.84,32.83,0,38.89,21.59,38.89,49.67v57.2h-32.4v-50.72c0-12.09-.21-27.66-16.85-27.66s-19.44,13.19-19.44,26.79v51.58h-32.4v-104.29Z"/>
  </g>
</svg>