<?xml version="1.0" encoding="UTF-8"?>
<svg id="icons" xmlns="http://www.w3.org/2000/svg" viewBox="0 0 216 216">
  <defs>
    <style>
      .cls-1 {
        fill: #ec2353;
      }

      .cls-2 {
        fill: #fff;
      }

      .cls-3 {
        fill: #69c9d0;
      }

      .cls-4 {
        fill: #231f20;
      }
    </style>
  </defs>
  <path class="cls-4" d="m180.56,0H35.44C15.9,0,0,15.9,0,35.44v145.12c0,19.54,15.9,35.44,35.44,35.44h145.12c19.55,0,35.44-15.9,35.44-35.44V35.44c0-19.54-15.89-35.44-35.44-35.44Z"/>
  <g>
    <path class="cls-1" d="m128.41,181.96c-10.11,10.07-24.04,16.27-39.46,16.27s-29.39-6.2-39.5-16.27c-10.07-10.07-16.35-23.91-16.35-39.24s6.46-29.47,17.03-39.58c10.32-9.85,24.59-15.97,40.56-15.97v26.42c-8.88,0-16.69,3.27-22.21,8.58-5.48,5.22-8.79,12.49-8.79,20.56s3.27,15.29,8.58,20.56c5.27,5.27,12.57,8.54,20.68,8.54,4.03,0,7.9-.81,11.38-2.29,3.53-1.49,6.67-3.61,9.3-6.24,5.31-5.27,8.58-12.53,8.58-20.56l-6.88-117.64v-.08h26.54v.08c.08,23.87,15.25,33.72,39.24,33.72v26.42c-16.44,0-20.39-4.76-32.36-14.19v62.73c0,19.32-1.53,33.47-16.35,48.2h0Z"/>
    <path class="cls-3" d="m118.09,164.81c-9,9-21.45,14.57-35.21,14.57s-26.16-5.56-35.17-14.57c-9-9-14.61-21.45-14.61-35.21s5.73-26.37,15.16-35.42c9.26-8.88,21.96-14.36,36.19-14.36v23.7c-7.9,0-14.86,2.93-19.79,7.64-4.88,4.71-7.86,11.21-7.86,18.43s2.93,13.76,7.64,18.47c4.71,4.71,11.25,7.64,18.43,7.64,3.61,0,7.05-.76,10.19-2.08,3.1-1.32,5.9-3.23,8.28-5.56,4.71-4.71,7.64-11.25,7.64-18.47V16.37h23.66v.13c-7.22,22.81,13.25,48.71,38.82,38.69v23.66c-14.65,0-28.16-5.05-38.82-13.51v56.23c0,17.33-1.36,30.03-14.57,43.24h0Z"/>
    <path class="cls-2" d="m118.09,173.64c-9,9-21.45,14.57-35.21,14.57s-26.16-5.56-35.17-14.57c-9-9-14.61-21.45-14.61-35.21s5.73-26.37,15.16-35.42c9.26-8.88,21.96-14.36,36.19-14.36v23.7c-7.9,0-14.86,2.93-19.79,7.64-4.88,4.71-7.86,11.21-7.86,18.43s2.93,13.76,7.64,18.47c4.71,4.71,11.25,7.64,18.43,7.64,3.61,0,7.05-.72,10.19-2.08,3.1-1.32,5.9-3.23,8.28-5.56,4.71-4.71,7.64-11.25,7.64-18.47V25.2h23.66v.13c.04,10.66,4.37,20.3,11.38,27.31,7.01,7.01,16.69,11.38,27.44,11.38v23.66c-14.65,0-28.16-5.05-38.82-13.51v56.23c0,17.33-1.36,30.03-14.57,43.24h0Z"/>
  </g>
</svg>