<?xml version="1.0" encoding="UTF-8"?>
<svg id="icons" xmlns="http://www.w3.org/2000/svg" viewBox="0 0 216 216">
  <defs>
    <style>
      .cls-1 {
        fill: #003764;
      }
    </style>
  </defs>
  <path class="cls-1" d="m180.56,0H35.44C15.9,0,0,15.9,0,35.44v145.12c0,19.54,15.9,35.44,35.44,35.44h145.12c19.55,0,35.44-15.9,35.44-35.44V35.44c0-19.54-15.89-35.44-35.44-35.44Zm2.88,91.17c-1.44.14-2.89.21-4.34.22-15.88,0-30.69-8-39.4-21.29v72.5c0,29.59-23.99,53.58-53.58,53.58s-53.59-23.99-53.59-53.58,23.99-53.58,53.59-53.58h0c1.12,0,2.21.1,3.31.17v26.4c-1.1-.13-2.18-.33-3.31-.33-15.1,0-27.35,12.24-27.35,27.35s12.25,27.35,27.35,27.35,28.45-11.9,28.45-27.01l.26-123.13h25.26c2.38,22.65,20.65,40.35,43.37,42.01v29.35"/>
</svg>