<?xml version="1.0" encoding="UTF-8"?>
<svg id="icons" xmlns="http://www.w3.org/2000/svg" xmlns:xlink="http://www.w3.org/1999/xlink" viewBox="0 0 216 216">
  <defs>
    <style>
      .cls-1 {
        fill: url(#linear-gradient);
      }

      .cls-2 {
        fill: #fff;
      }
    </style>
    <linearGradient id="linear-gradient" x1="190.75" y1="8.7" x2="44.17" y2="184.6" gradientUnits="userSpaceOnUse">
      <stop offset=".01" stop-color="#4a489d"/>
      <stop offset=".19" stop-color="#84469b"/>
      <stop offset=".3" stop-color="#a5469a"/>
      <stop offset=".35" stop-color="#a84393"/>
      <stop offset=".43" stop-color="#b13d80"/>
      <stop offset=".52" stop-color="#c13262"/>
      <stop offset=".6" stop-color="#d4263e"/>
      <stop offset=".88" stop-color="#f6a128"/>
      <stop offset="1" stop-color="#f6da27"/>
    </linearGradient>
  </defs>
  <rect class="cls-1" width="216" height="216" rx="36" ry="36"/>
  <g>
    <path class="cls-2" d="m108,35.7c23.56,0,26.35.09,35.63.52,8.6.41,13.26,1.83,16.36,3.03,4.12,1.61,7.06,3.53,10.15,6.6,3.09,3.09,5.01,6.03,6.6,10.15,1.2,3.11,2.64,7.77,3.03,16.36.43,9.3.52,12.09.52,35.63s-.09,26.33-.52,35.63c-.39,8.6-1.83,13.26-3.03,16.38-1.59,4.1-3.51,7.04-6.6,10.13-3.09,3.09-6.03,4.99-10.15,6.6-3.11,1.2-7.77,2.64-16.36,3.03-9.28.43-12.07.5-35.63.5s-26.35-.07-35.63-.5c-8.6-.39-13.26-1.83-16.36-3.03-4.12-1.61-7.06-3.51-10.15-6.6-3.09-3.09-5.01-6.03-6.6-10.13-1.2-3.12-2.64-7.78-3.03-16.38-.43-9.3-.5-12.07-.5-35.63s.07-26.33.5-35.63c.39-8.6,1.83-13.26,3.03-16.36,1.59-4.12,3.51-7.06,6.6-10.15,3.09-3.07,6.03-4.99,10.15-6.6,3.11-1.2,7.77-2.63,16.36-3.03,9.28-.43,12.07-.52,35.63-.52m0-15.88c-23.96,0-26.96.11-36.35.52-9.39.44-15.81,1.94-21.41,4.1-5.79,2.26-10.72,5.27-15.61,10.17-4.92,4.9-7.93,9.84-10.17,15.64-2.2,5.58-3.7,12-4.1,21.39-.43,9.39-.54,12.41-.54,36.35s.11,26.96.54,36.35c.41,9.39,1.9,15.79,4.1,21.41,2.24,5.81,5.25,10.71,10.17,15.61,4.88,4.92,9.82,7.93,15.61,10.17,5.6,2.2,12.02,3.68,21.41,4.1,9.39.44,12.39.54,36.35.54s26.96-.09,36.35-.54c9.39-.43,15.81-1.9,21.41-4.1,5.79-2.24,10.72-5.25,15.61-10.17,4.92-4.9,7.93-9.8,10.17-15.61,2.18-5.62,3.68-12.02,4.1-21.41.43-9.39.54-12.41.54-36.35s-.11-26.96-.54-36.35c-.43-9.39-1.92-15.81-4.1-21.39-2.24-5.81-5.25-10.74-10.17-15.64-4.88-4.9-9.82-7.91-15.61-10.17-5.6-2.16-12.02-3.66-21.41-4.1-9.39-.41-12.39-.52-36.35-.52"/>
    <path class="cls-2" d="m108,62.73c-25,0-45.28,20.27-45.28,45.27s20.28,45.28,45.28,45.28,45.28-20.27,45.28-45.28-20.27-45.27-45.28-45.27m0,74.67c-16.23,0-29.4-13.15-29.4-29.4s13.17-29.38,29.4-29.38,29.4,13.15,29.4,29.38-13.17,29.4-29.4,29.4"/>
    <path class="cls-2" d="m165.65,60.93c0,5.84-4.73,10.58-10.58,10.58s-10.6-4.73-10.6-10.58,4.73-10.58,10.6-10.58,10.58,4.73,10.58,10.58"/>
  </g>
</svg>